# xmcd
#
# Track frame offsets:
#	150
#	16398
#	35055
#	62030
#	80368
#	94938
#	120425
#	145785
#	163658
#	185820
#
# Disc length: 2737
#
# Revision: 2
# Processed by: cddbd v1.5.1PL0 Copyright (c) Steve Scherf et al.
# Submitted via: audiograbber 1.81.02
# Normalized: r1:DSETVAR1
#
DISCID=840aaf0a
DTITLE=Various Artist - 80's Soul
DYEAR=1993
DGENRE=Slow Jam
TTITLE0=Luther Vandross - So Amazing
TTITLE1=Marvin Gaye - Sexual Healing
TTITLE2=James Brown - Living In America
TTITLE3=Gregory Abbott - Shake You Down
TTITLE4=Terence Trent D'Arby - If You Let Me Stay
TTITLE5=Isley Brothers - Between The Sheets
TTITLE6=Earth, Wind and Fire - Let's Groove
TTITLE7=Alexander O'Neal - Fake
TTITLE8=Deniece Williams - Never Say Never
TTITLE9=Isley Jasper Isley - Caravan Of Love
EXTD=
EXTT0=
EXTT1=
EXTT2=
EXTT3=
EXTT4=
EXTT5=
EXTT6=
EXTT7=
EXTT8=
EXTT9=
PLAYORDER=
